<?xml version="1.0" encoding="iso-8859-1"?>
<!-- Generator: Adobe Illustrator 19.1.0, SVG Export Plug-In . SVG Version: 6.00 Build 0)  -->
<svg version="1.1" xmlns="http://www.w3.org/2000/svg" xmlns:xlink="http://www.w3.org/1999/xlink" x="0px" y="0px"
	 viewBox="0 0 500 300" style="enable-background:new 0 0 500 300;" xml:space="preserve">
<g id="Normal">
	<rect id="Background" style="fill:#F7941E;" width="100" height="100"/>
	<path id="Face" style="fill:#FFFFFF;stroke:#000000;stroke-miterlimit:10;" d="M71.874,45.255C73.866,48.808,75,52.897,75,57.249
		c0,13.668-50,13.668-50,0S36.193,32.5,50,32.5C59.411,32.5,67.608,37.648,71.874,45.255"/>
	<circle id="L-Eye" cx="40.118" cy="45.826" r="1.5"/>
	<circle id="R-Eye" cx="59.891" cy="45.817" r="1.5"/>
	
		<line id="Mouth" style="stroke:#000000;stroke-linecap:round;stroke-miterlimit:10;" x1="38.618" y1="57.601" x2="61.391" y2="57.601"/>
</g>
<g id="Happy">
	<rect id="Background_1_" x="100" y="0" style="fill:#F15A29;" width="100" height="100"/>
	<path id="Face_1_" style="fill:#FFFFFF;stroke:#000000;stroke-miterlimit:10;" d="M171.874,45.255
		c1.992,3.553,3.126,7.642,3.126,11.993c0,13.668-50,13.668-50,0S136.193,32.5,150,32.5C159.411,32.5,167.608,37.648,171.874,45.255
		"/>
	<path id="Mouth_6_" style="fill:none;stroke:#000000;stroke-linecap:round;stroke-miterlimit:10;" d="M138.613,57.365
		c0,0,3.841,5.336,11.382,5.232c7.542-0.104,11.391-5.232,11.391-5.232"/>
	<circle id="L-Eye_1_" cx="140.118" cy="45.826" r="1.5"/>
	<circle id="R-Eye_1_" cx="159.891" cy="45.817" r="1.5"/>
</g>
<g id="Vey_Happy">
	<rect id="Background_2_" x="200" y="0" style="fill:#00AEEF;" width="100" height="100"/>
	<path id="Face_2_" style="fill:#FFFFFF;stroke:#000000;stroke-miterlimit:10;" d="M271.874,45.255
		c1.992,3.553,3.126,7.642,3.126,11.993c0,13.668-50,13.668-50,0S236.193,32.5,250,32.5C259.411,32.5,267.608,37.648,271.874,45.255
		"/>
	<circle id="L-Eye_2_" cx="240.118" cy="45.826" r="1.5"/>
	<circle id="R-Eye_2_" cx="259.891" cy="45.817" r="1.5"/>
	<path id="Mouth_1_" style="stroke:#000000;stroke-linecap:round;stroke-miterlimit:10;" d="M238.903,52.15
		c0.428,5.831,5.283,10.431,11.223,10.431c5.94,0,10.794-4.6,11.223-10.431H238.903z"/>
	<g id="Tongue_1_">
		<path style="fill:none;" d="M239.343,52.025c0.117,1.588,0.585,3.076,1.312,4.4c1.63-1.077,4.335-1.529,7.265-1.038
			c4.156,0.696,7.278,3.036,7.332,5.376c3.173-1.709,5.398-4.951,5.677-8.739H239.343z"/>
		<path id="Tongue" style="fill:#ED1C24;" d="M247.92,55.387c-2.93-0.491-5.635-0.039-7.265,1.038
			c1.839,3.352,5.387,5.63,9.481,5.63c1.853,0,3.592-0.472,5.116-1.292C255.198,58.423,252.075,56.084,247.92,55.387z"/>
		<path id="Tongue-Line" style="fill:none;stroke:#000000;stroke-linecap:round;stroke-miterlimit:10;" d="M242.068,54.98
			c3.879-2.226,6.082-1.431,6.609,2.385"/>
	</g>
</g>
<g id="Angry">
	<rect id="Background_3_" x="300" y="0" style="fill:#00A651;" width="100" height="100"/>
	<path id="Face_3_" style="fill:#FFFFFF;stroke:#000000;stroke-miterlimit:10;" d="M371.874,45.255
		c1.992,3.553,3.126,7.642,3.126,11.993c0,13.668-50,13.668-50,0S336.193,32.5,350,32.5C359.411,32.5,367.608,37.648,371.874,45.255
		"/>
	<circle id="L-Eye_3_" cx="340.118" cy="45.826" r="1.5"/>
	<circle id="R-Eye_3_" cx="359.891" cy="45.817" r="1.5"/>
	
		<line id="L-Eyebarow" style="fill:#FFFFFF;stroke:#000000;stroke-linecap:round;stroke-miterlimit:10;" x1="341.618" y1="44.976" x2="338.618" y2="43.676"/>
	
		<line id="R-Eyebrow" style="fill:#FFFFFF;stroke:#000000;stroke-linecap:round;stroke-miterlimit:10;" x1="358.391" y1="44.976" x2="361.391" y2="43.676"/>
	<path style="stroke:#000000;stroke-miterlimit:10;" d="M353.863,60.658c-1.198,2.417-4.873,2.479-5.938,0
		c-0.079-0.184-0.192-0.369-0.357-0.557c-0.925-1.05-3.313,0.533-5.161-1.174c-2.848-2.63,2.679-5.904,5.947-5.887
		C352.534,53.062,355.908,56.531,353.863,60.658z"/>
	<path style="fill:#ED1C24;" d="M345.659,55.002c-1.567-0.39-3.141,0.449-3.738,1.9c-0.033,0.564,0.183,1.134,0.771,1.677
		c1.762,1.628,4.013,0.269,5.02,1.05c0.121-0.228,0.225-0.467,0.29-0.729C348.432,57.176,347.383,55.431,345.659,55.002z"/>
</g>
<g id="Shocked">
	<rect id="Background_4_" x="400.004" y="0" style="fill:#662D91;" width="100" height="100"/>
	<path id="Face_4_" style="fill:#FFFFFF;stroke:#000000;stroke-miterlimit:10;" d="M471.878,45.255
		c1.992,3.553,3.126,7.642,3.126,11.993c0,13.668-50,13.668-50,0s11.193-24.749,25-24.749
		C459.416,32.5,467.613,37.648,471.878,45.255"/>
	<circle id="L-Eye_4_" cx="440.122" cy="45.826" r="1.5"/>
	<circle id="R-Eye_4_" cx="459.895" cy="45.817" r="1.5"/>
	<path id="L-Eyebarow_1_" style="fill:#FFFFFF;stroke:#000000;stroke-linecap:round;stroke-miterlimit:10;" d="M439.099,42.298
		c-1.438-0.069-2.293,0.607-2.564,2.028"/>
	<path id="L-Eyebarow_3_" style="fill:#FFFFFF;stroke:#000000;stroke-linecap:round;stroke-miterlimit:10;" d="M460.627,42.298
		c1.438-0.069,2.293,0.607,2.564,2.028"/>
	
		<ellipse transform="matrix(0.7171 0.697 -0.697 0.7171 164.4208 -294.5231)" style="stroke:#000000;stroke-miterlimit:10;" cx="444.998" cy="55.269" rx="5.691" ry="7.028"/>
	<path style="fill:#ED1C24;" d="M442.6,53.224c-1.203,0.049-2.633,1.224-3.388,2.045c-0.355,1.954,0.125,3.568,1.504,4.805
		c1.212,1.086,2.401,1.34,4.913,0.772c0.959-0.838,1.558-2.073,1.502-3.445C447.032,54.996,445.004,53.126,442.6,53.224z"/>
</g>
<g id="Disgusted">
	<rect id="Background_5_" x="0.004" y="100" style="fill:#F9ED32;" width="100" height="100"/>
	<path id="Face_5_" style="fill:#FFFFFF;stroke:#000000;stroke-miterlimit:10;" d="M71.878,145.255
		c1.992,3.553,3.126,7.642,3.126,11.993c0,13.668-50,13.668-50,0s11.193-24.749,25-24.749
		C59.416,132.5,67.613,137.648,71.878,145.255"/>
	<circle id="L-Eye_5_" cx="40.122" cy="145.826" r="1.5"/>
	<circle id="R-Eye_5_" cx="59.895" cy="145.817" r="1.5"/>
	<path id="Mouth_3_" style="fill:none;stroke:#000000;stroke-linecap:round;stroke-miterlimit:10;" d="M38.638,158.215
		c0,0,2.78-3.053,2.936-0.158c0.156,2.895,4.338-3.137,4.494-0.242c0.156,2.895,3.774-3.107,3.935-0.212s4.523-3.147,4.678-0.252
		c0.155,2.895,3.462-3.09,3.619-0.195c0.156,2.895,3.078-0.166,3.078-0.166"/>
	
		<line id="L-Eyebrow" style="fill:#FFFFFF;stroke:#000000;stroke-linecap:round;stroke-miterlimit:10;" x1="38.622" y1="144.976" x2="41.622" y2="143.676"/>
	
		<line id="R-Eyebrow_2_" style="fill:#FFFFFF;stroke:#000000;stroke-linecap:round;stroke-miterlimit:10;" x1="61.395" y1="144.976" x2="58.395" y2="143.676"/>
</g>
<g id="Love">
	<rect id="Background_6_" x="100.126" y="100" style="fill:#EC008C;" width="100" height="100"/>
	<path id="Face_6_" style="fill:#FFFFFF;stroke:#000000;stroke-miterlimit:10;" d="M171.999,145.255
		c1.992,3.553,3.126,7.642,3.126,11.993c0,13.668-50,13.668-50,0s11.193-24.749,25-24.749
		C159.537,132.5,167.734,137.648,171.999,145.255"/>
	<path id="Mouth_5_" style="fill:none;stroke:#000000;stroke-linecap:round;stroke-linejoin:round;stroke-miterlimit:10;" d="
		M154.039,158.779c-0.17,1.987-1.854,3.548-3.91,3.548c-2.056,0-3.74-1.561-3.91-3.548h-0.192c0.156,2.129,1.93,3.81,4.099,3.81
		c2.169,0,3.943-1.68,4.099-3.81H154.039z"/>
	<path id="R-Eye_6_" style="fill:#ED1969;" d="M161.374,142.69c-0.725,0-1.355,0.407-1.675,1.004
		c-0.32-0.598-0.95-1.004-1.675-1.004c-1.048,0-1.898,0.85-1.898,1.898c0,2.568,3.573,4.355,3.573,4.355s3.573-1.787,3.573-4.355
		C163.272,143.54,162.422,142.69,161.374,142.69z"/>
	<path id="L-Eye_6_" style="fill:#ED1969;" d="M141.918,142.7c-0.725,0-1.355,0.407-1.675,1.004c-0.32-0.598-0.95-1.004-1.675-1.004
		c-1.048,0-1.898,0.85-1.898,1.898c0,2.568,3.573,4.355,3.573,4.355s3.573-1.787,3.573-4.355
		C143.816,143.55,142.966,142.7,141.918,142.7z"/>
</g>
<g id="Mad">
	<rect id="Background_7_" x="200.136" y="100" style="fill:#A97C50;" width="100" height="100"/>
	<path id="Face_7_" style="fill:#FFFFFF;stroke:#000000;stroke-miterlimit:10;" d="M272.009,145.255
		c1.992,3.553,3.126,7.642,3.126,11.993c0,13.668-50,13.668-50,0s11.193-24.749,25-24.749
		C259.547,132.5,267.744,137.648,272.009,145.255"/>
	
		<line id="L-Eyebarow_2_" style="fill:#FFFFFF;stroke:#000000;stroke-linecap:round;stroke-miterlimit:10;" x1="241.749" y1="145.17" x2="238.749" y2="143.871"/>
	
		<line id="R-Eyebrow_1_" style="fill:#FFFFFF;stroke:#000000;stroke-linecap:round;stroke-miterlimit:10;" x1="258.522" y1="145.17" x2="261.522" y2="143.871"/>
	<circle id="L-Eye_7_" cx="240.253" cy="145.826" r="1.5"/>
	<circle id="R-Eye_7_" cx="260.026" cy="145.817" r="1.5"/>
	<path style="fill:none;stroke:#211E1F;stroke-linecap:round;stroke-linejoin:round;stroke-miterlimit:10;" d="M238.753,153.004
		l9.092-0.346c1.993,0.095,3.958,0.498,5.782,1.185l5.234,1.972"/>
</g>
<g id="Hungry">
	<rect id="Background_8_" x="300" y="100" style="fill:#00A79D;" width="100" height="100"/>
	<path id="Face_8_" style="fill:#FFFFFF;stroke:#000000;stroke-miterlimit:10;" d="M371.811,145.287
		c1.992,3.553,3.126,7.642,3.126,11.993c0,13.668-50,13.668-50,0s11.193-24.749,25-24.749
		C359.349,132.531,367.546,137.68,371.811,145.287"/>
	<g>
		<path id="L-Mouth" style="fill:none;stroke:#000000;stroke-linecap:round;stroke-miterlimit:10;" d="M336.109,156.135
			c0,0,1.354,0.451,2.668-0.525c1.314-0.977,1.34-2.368,1.34-2.368"/>
		<path id="L-Mouth_1_" style="fill:none;stroke:#000000;stroke-linecap:round;stroke-miterlimit:10;" d="M363.899,155.991
			c0,0-1.354,0.451-2.668-0.525c-0.946-0.703-1.224-1.621-1.306-2.08"/>
		<path id="Mouth_4_" style="fill:none;stroke:#000000;stroke-linecap:round;stroke-miterlimit:10;" d="M338.613,156.239
			c0,0,3.841,5.336,11.382,5.232c7.542-0.104,11.391-5.232,11.391-5.232"/>
		<path id="Tongue_2_" style="fill:#ED1C24;stroke:#000000;stroke-miterlimit:10;" d="M361.231,157.531
			c1.417,2.125,1.224,4.743-0.432,5.847c-1.656,1.105-4.147,0.278-5.565-1.847c-0.731-1.096,1.551-1.425,3.118-2.421
			C359.825,158.174,360.545,156.502,361.231,157.531z"/>
		<path id="Tongue_Line" style="fill:#ED1C24;stroke:#000000;stroke-linecap:round;stroke-miterlimit:10;" d="M357.687,159.481
			c0,0,1.877,0.882,1.595,1.437"/>
	</g>
	<circle id="L-Eye_8_" cx="340.118" cy="145.826" r="1.5"/>
	<circle id="R-Eye_8_" cx="359.891" cy="145.817" r="1.5"/>
</g>
<g id="Joke">
	<rect id="Background_9_" x="400.004" y="100.031" style="fill:#9E1F63;" width="100" height="100"/>
	<path id="Face_9_" style="fill:#FFFFFF;stroke:#000000;stroke-miterlimit:10;" d="M471.878,145.287
		c1.992,3.553,3.126,7.642,3.126,11.993c0,13.668-50,13.668-50,0s11.193-24.749,25-24.749
		C459.416,132.531,467.613,137.68,471.878,145.287"/>
	<path id="Mouth_2_" style="stroke:#000000;stroke-linecap:round;stroke-miterlimit:10;" d="M438.907,152.181
		c0.428,5.831,5.283,10.431,11.223,10.431c5.94,0,10.794-4.6,11.223-10.431H438.907z"/>
	<path id="Mouth_7_" style="fill:#ED1C24;stroke:#000000;stroke-linecap:round;stroke-miterlimit:10;" d="M445.953,156.562
		c0.155,5.479,2.033,9,4.177,9c2.144,0,3.771-3.521,3.925-9H445.953z"/>
	<g id="L-Eye_10_">
		<polyline style="fill:none;stroke:#000000;stroke-linecap:round;stroke-miterlimit:10;" points="438.907,144.257 440.782,145.848 
			442.657,147.439 		"/>
		
			<line style="fill:none;stroke:#000000;stroke-linecap:round;stroke-miterlimit:10;" x1="442.657" y1="144.257" x2="438.907" y2="147.439"/>
	</g>
	<g id="R-Eye_10_">
		<polyline style="fill:none;stroke:#000000;stroke-linecap:round;stroke-miterlimit:10;" points="457.645,144.257 459.52,145.848 
			461.395,147.439 		"/>
		
			<line style="fill:none;stroke:#000000;stroke-linecap:round;stroke-miterlimit:10;" x1="461.395" y1="144.257" x2="457.645" y2="147.439"/>
	</g>
	
		<line id="Tongue-line" style="fill:#ED1C24;stroke:#000000;stroke-linecap:round;stroke-miterlimit:10;" x1="450.004" y1="154.75" x2="450.13" y2="159.25"/>
</g>
<g id="Relaxed">
	<rect id="Background_10_" x="0.126" y="200" style="fill:#1C75BC;" width="100" height="100"/>
	<path id="Face_10_" style="fill:#FFFFFF;stroke:#000000;stroke-miterlimit:10;" d="M71.999,245.255
		c1.992,3.553,3.126,7.642,3.126,11.993c0,13.668-50,13.668-50,0c0-13.668,11.193-24.749,25-24.749
		C59.537,232.5,67.734,237.648,71.999,245.255"/>
	<g id="Mouth_14_">
		<path id="Mouth_12_" style="fill:none;stroke:#000000;stroke-linecap:round;stroke-miterlimit:10;" d="M54.247,253.567
			c0,0,0.278,0.405,1.024,0.903c0.746,0.498,1.223,0.61,1.223,0.61"/>
		<path id="Mouth_8_" style="fill:none;stroke:#000000;stroke-linecap:round;stroke-miterlimit:10;" d="M45.356,254.5
			c0,0,1.609,2.657,4.768,2.605c3.159-0.052,4.772-2.605,4.772-2.605"/>
		<path id="Mouth_13_" style="fill:none;stroke:#000000;stroke-linecap:round;stroke-miterlimit:10;" d="M46.351,253.567
			c0,0-0.278,0.405-1.024,0.903c-0.746,0.498-1.223,0.61-1.223,0.61"/>
	</g>
	<path id="L-Eye_12_" style="fill:none;stroke:#000000;stroke-linecap:round;stroke-miterlimit:10;" d="M44.604,244.44
		c0,0-1.135-0.43-2.536,0.318s-1.718,1.894-1.718,1.894"/>
	<path id="L-Eye_9_" style="fill:none;stroke:#000000;stroke-linecap:round;stroke-miterlimit:10;" d="M56.367,244.44
		c0,0,1.135-0.43,2.536,0.318c1.4,0.748,1.718,1.894,1.718,1.894"/>
</g>
<g id="Sad_1_">
	<rect id="Background_11_" x="100.126" y="200" style="fill:#C2B59B;" width="100" height="100"/>
	<path id="Face_11_" style="fill:#FFFFFF;stroke:#000000;stroke-miterlimit:10;" d="M171.999,245.255
		c1.992,3.553,3.126,7.642,3.126,11.993c0,13.668-50,13.668-50,0c0-13.668,11.193-24.749,25-24.749
		C159.537,232.5,167.734,237.648,171.999,245.255"/>
	<path id="Mouth_9_" style="fill:none;stroke:#000000;stroke-linecap:round;stroke-miterlimit:10;" d="M138.739,260.599
		c0,0,3.841-5.336,11.382-5.232c7.542,0.104,11.391,5.232,11.391,5.232"/>
	<path id="Mouth_10_" style="fill:none;stroke:#000000;stroke-linecap:round;stroke-miterlimit:10;" d="M138.122,246.561
		c0,0,0.179-1.38,1.594-2.118c1.415-0.738,2.647-0.17,2.647-0.17"/>
	<path id="Mouth_11_" style="fill:none;stroke:#000000;stroke-linecap:round;stroke-miterlimit:10;" d="M162.137,246.561
		c0,0-0.179-1.38-1.594-2.118s-2.647-0.17-2.647-0.17"/>
	<circle id="L-Eye_11_" cx="140.243" cy="245.826" r="1.5"/>
	<circle id="R-Eye_11_" cx="160.016" cy="245.817" r="1.5"/>
</g>
<g id="Scared">
	<rect id="Background_12_" x="200.136" y="200" style="fill:#8DC63F;" width="100" height="100"/>
	<path id="Face_12_" style="fill:#FFFFFF;stroke:#000000;stroke-miterlimit:10;" d="M272.009,245.255
		c1.992,3.553,3.126,7.642,3.126,11.993c0,13.668-50,13.668-50,0c0-13.668,11.193-24.749,25-24.749
		C259.547,232.5,267.744,237.648,272.009,245.255"/>
	<circle id="L-Eye_13_" cx="240.253" cy="245.826" r="1.5"/>
	<circle id="R-Eye_12_" cx="260.026" cy="245.817" r="1.5"/>
	<path style="stroke:#221F1F;stroke-miterlimit:10;" d="M258.39,253.593c-1.527-0.356-2.939,0.141-3.89,1.101
		c-0.409,0.414-1.052,0.413-1.461,0c-0.742-0.749-1.764-1.216-2.903-1.216c-1.137,0-2.159,0.466-2.9,1.213
		c-0.409,0.412-1.05,0.413-1.459,0c-0.951-0.959-2.363-1.455-3.889-1.098c-1.48,0.346-2.682,1.548-3.022,3.03
		c-0.621,2.702,1.415,5.101,4.011,5.101c1.137,0,2.159-0.466,2.9-1.213c0.409-0.412,1.05-0.412,1.459,0
		c0.741,0.748,1.763,1.213,2.9,1.213c1.139,0,2.161-0.467,2.903-1.216c0.409-0.414,1.052-0.414,1.462,0
		c0.741,0.749,1.764,1.216,2.903,1.216c2.596,0,4.632-2.399,4.011-5.101C261.073,255.141,259.871,253.938,258.39,253.593z"/>
	<path style="fill:#ED1C24;" d="M242.739,256.456c-1.56,0-2.904,0.68-3.614,1.675c0.443,1.8,2.066,3.135,4.003,3.135
		c1.137,0,2.159-0.466,2.9-1.213c0.239-0.241,0.555-0.324,0.86-0.283c0.001-0.022,0.008-0.042,0.008-0.064
		C246.895,257.911,245.034,256.456,242.739,256.456z"/>
	<path style="fill:#00AEEF;" d="M234.742,246.601c0,0-0.066-2.466-0.411-3.476c-0.937,0.512-1.932,1.279-2.652,2.284
		c-0.445,0.622-0.754,1.364-0.763,2.124c-0.01,0.873,0.376,1.586,0.99,1.825s1.381-0.026,1.963-0.676
		C234.376,248.117,234.742,246.601,234.742,246.601z M233.518,248.129c-0.387,0.433-0.901,0.61-1.309,0.451
		c-0.239-0.093-0.427-0.296-0.541-0.565c0.053,0.033,0.109,0.061,0.168,0.084c0.51,0.198,1.152-0.023,1.636-0.564
		c0.397-0.443,0.59-0.989,0.683-1.447c-0.004,0.196-0.016,0.387-0.039,0.573C234.065,247.082,233.92,247.68,233.518,248.129
		L233.518,248.129z"/>
</g>
<g id="Cry">
	<rect id="Background_13_" x="300.136" y="200" style="fill:#BE1E2D;" width="100" height="100"/>
	<path id="Face_13_" style="fill:#FFFFFF;stroke:#000000;stroke-miterlimit:10;" d="M372.009,245.255
		c1.992,3.553,3.126,7.642,3.126,11.993c0,13.668-50,13.668-50,0c0-13.668,11.193-24.749,25-24.749
		C359.547,232.5,367.744,237.648,372.009,245.255"/>
	<circle id="L-Eye_14_" cx="340.253" cy="245.826" r="1.5"/>
	<circle id="R-Eye_13_" cx="360.026" cy="245.817" r="1.5"/>
	<path id="L-Eyebrow_1_" style="fill:none;stroke:#000000;stroke-linecap:round;stroke-miterlimit:10;" d="M336.838,244.316
		c0,0,1.212,0.078,2.33-1.049c1.119-1.127,1.085-2.315,1.085-2.315"/>
	<path id="L-Eyebrow_2_" style="fill:none;stroke:#000000;stroke-linecap:round;stroke-miterlimit:10;" d="M363.442,244.316
		c0,0-1.212,0.078-2.33-1.049c-1.119-1.127-1.085-2.315-1.085-2.315"/>
	<path style="fill:#00AEEF;" d="M341.484,249.167c-0.058-0.311-0.222-0.602-0.404-0.83c-0.226,0.183-0.448,0.433-0.572,0.725
		c-0.076,0.18-0.104,0.382-0.044,0.569c0.069,0.215,0.238,0.367,0.434,0.388c0.196,0.021,0.393-0.091,0.507-0.287
		C341.504,249.562,341.52,249.359,341.484,249.167z M341.259,249.617c-0.075,0.13-0.208,0.205-0.338,0.191
		c-0.076-0.008-0.147-0.047-0.201-0.106c0.018,0.005,0.036,0.008,0.055,0.01c0.162,0.018,0.328-0.076,0.422-0.239
		c0.077-0.133,0.087-0.279,0.076-0.398c0.015,0.048,0.027,0.096,0.036,0.143C341.33,249.326,341.337,249.482,341.259,249.617
		L341.259,249.617z"/>
	<path style="fill:#00AEEF;" d="M359.714,249.732c0.113,0.196,0.311,0.308,0.507,0.287c0.196-0.021,0.365-0.173,0.434-0.388
		c0.06-0.187,0.033-0.389-0.044-0.569c-0.124-0.291-0.345-0.541-0.572-0.725c-0.182,0.227-0.346,0.519-0.404,0.83
		C359.599,249.359,359.616,249.562,359.714,249.732z M359.86,249.617c-0.078-0.135-0.07-0.291-0.05-0.398
		c0.009-0.047,0.021-0.095,0.036-0.143c-0.011,0.118-0.001,0.264,0.076,0.398c0.094,0.163,0.26,0.257,0.422,0.239
		c0.019-0.002,0.037-0.005,0.055-0.01c-0.055,0.059-0.125,0.098-0.201,0.106C360.068,249.823,359.936,249.748,359.86,249.617
		L359.86,249.617z"/>
	<path style="fill:#00AEEF;" d="M342.25,247.928c-0.173-0.265-0.436-0.271-0.692-0.411c-0.138,0.256-0.247,0.372-0.249,0.689
		c-0.001,0.196,0.051,0.392,0.178,0.542c0.146,0.172,0.361,0.247,0.55,0.192s0.328-0.235,0.358-0.459
		C342.421,248.285,342.358,248.092,342.25,247.928z M342.216,248.43c-0.02,0.149-0.113,0.269-0.239,0.306
		c-0.074,0.022-0.154,0.013-0.227-0.02c0.018-0.002,0.037-0.006,0.055-0.012c0.157-0.046,0.274-0.197,0.298-0.383
		c0.02-0.153-0.027-0.292-0.082-0.397c0.033,0.039,0.062,0.078,0.088,0.118C342.169,248.135,342.236,248.276,342.216,248.43
		L342.216,248.43z"/>
	<path style="fill:#00AEEF;" d="M358.532,248.68c0.029,0.224,0.169,0.404,0.358,0.459s0.403-0.019,0.55-0.192
		c0.127-0.15,0.18-0.347,0.178-0.542c-0.002-0.317-0.111-0.632-0.249-0.889c-0.255,0.14-0.518,0.346-0.692,0.611
		C358.57,248.291,358.507,248.485,358.532,248.68z M358.711,248.63c-0.02-0.155,0.047-0.296,0.106-0.387
		c0.026-0.04,0.056-0.08,0.088-0.118c-0.056,0.105-0.102,0.244-0.082,0.397c0.024,0.186,0.141,0.337,0.298,0.383
		c0.018,0.005,0.036,0.009,0.055,0.012c-0.073,0.034-0.153,0.042-0.227,0.02C358.824,248.899,358.731,248.779,358.711,248.63
		L358.711,248.63z"/>
	<circle style="stroke:#000000;stroke-miterlimit:10;" cx="350.837" cy="256.893" r="6.893"/>
	<path style="fill:#ED1C24;stroke:#000000;stroke-miterlimit:10;" d="M357.412,258.85c-0.969-2.048-3.442-3.507-6.349-3.507
		c-3.022,0-5.58,1.575-6.461,3.751c1.04,2.487,3.496,4.235,6.36,4.235C353.919,263.331,356.433,261.465,357.412,258.85z"/>
	<path style="fill:#ED1C24;stroke:#000000;stroke-linecap:round;stroke-miterlimit:10;" d="M350.384,255.403l0.349,0.349
		c0.69,0.69,0.896,1.728,0.522,2.63l0,0"/>
</g>
<g id="Yawn">
	<rect id="Background_14_" x="400.13" y="200.021" style="fill:#2B3990;" width="100" height="100"/>
	<path id="Face_14_" style="fill:#FFFFFF;stroke:#000000;stroke-miterlimit:10;" d="M472.003,245.277
		c1.992,3.553,3.126,7.642,3.126,11.993c0,13.668-50,13.668-50,0c0-13.668,11.193-24.749,25-24.749
		C459.541,232.521,467.738,237.67,472.003,245.277"/>
	<path id="Mouth_17_" style="fill:none;stroke:#000000;stroke-linecap:round;stroke-miterlimit:10;" d="M461.521,257.623"/>
	<path id="Mouth_16_" style="fill:none;stroke:#000000;stroke-linecap:round;stroke-miterlimit:10;" d="M440.792,257.623"/>
	<path id="L-Eye_16_" style="fill:none;stroke:#000000;stroke-linecap:round;stroke-miterlimit:10;" d="M437.896,245.19
		c0,0,0.76,0.947,2.346,1.013c1.586,0.066,2.441-0.76,2.441-0.76"/>
	<path id="L-Eye_15_" style="fill:none;stroke:#000000;stroke-linecap:round;stroke-miterlimit:10;" d="M457.626,245.416
		c0,0,0.846,0.871,2.431,0.787c1.585-0.084,2.359-0.987,2.359-0.987"/>
	<path style="stroke:#000000;stroke-linecap:round;stroke-miterlimit:10;" d="M451.708,258.438
		c-1.664,2.521-3.538,4.792-6.466,4.792s-5.302-2.374-5.302-5.302s2.394-4.427,5.302-5.302
		C448.849,251.54,453.946,255.048,451.708,258.438z"/>
	<path style="fill:#ED1C24;stroke:#000000;stroke-linecap:round;stroke-miterlimit:10;" d="M443.432,257.626
		c-1.405,0.028-2.592,0.891-3.113,2.104c0.763,2.056,2.741,3.511,5.057,3.465c0.359-0.007,0.687-0.064,0.994-0.159
		c0.389-0.574,0.615-1.265,0.6-2.01C446.932,259.11,445.347,257.588,443.432,257.626z"/>
</g>
</svg>
