<?xml version="1.0" encoding="utf-8"?>
<!-- Generator: Adobe Illustrator 19.1.0, SVG Export Plug-In . SVG Version: 6.00 Build 0)  -->
<svg version="1.1" xmlns="http://www.w3.org/2000/svg" xmlns:xlink="http://www.w3.org/1999/xlink" x="0px" y="0px"
	 viewBox="100 -75 500.1 300" style="enable-background:new 100 -75 500.1 300;" xml:space="preserve">
<style type="text/css">
	.st0{fill:#F7941E;}
	.st1{fill:#FFFFFF;stroke:#000000;stroke-miterlimit:10;}
	.st2{fill:none;stroke:#000000;stroke-linecap:round;stroke-miterlimit:10;}
	.st3{fill:#F15A29;}
	.st4{fill:#00AEEF;}
	.st5{stroke:#000000;stroke-linecap:round;stroke-miterlimit:10;}
	.st6{fill:none;}
	.st7{fill:#ED1C24;}
	.st8{fill:#00A651;}
	.st9{stroke:#000000;stroke-miterlimit:10;}
	.st10{fill:#662D91;}
	.st11{fill:#FFFFFF;stroke:#000000;stroke-linecap:round;stroke-miterlimit:10;}
	.st12{fill:#F9ED32;}
	.st13{fill:#EC008C;}
	.st14{fill:none;stroke:#000000;stroke-linecap:round;stroke-linejoin:round;stroke-miterlimit:10;}
	.st15{fill:#ED1969;}
	.st16{fill:#A97C50;}
	.st17{fill:none;stroke:#211E1F;stroke-linecap:round;stroke-linejoin:round;stroke-miterlimit:10;}
	.st18{fill:#00A79D;}
	.st19{fill:#ED1C24;stroke:#000000;stroke-miterlimit:10;}
	.st20{fill:#ED1C24;stroke:#000000;stroke-linecap:round;stroke-miterlimit:10;}
	.st21{fill:#9E1F63;}
	.st22{fill:#1C75BC;}
	.st23{fill:#C2B59B;}
	.st24{fill:#8DC63F;}
	.st25{stroke:#221F1F;stroke-miterlimit:10;}
	.st26{fill:#BE1E2D;}
	.st27{fill:#2B3990;}
	.st28{opacity:0.5;}
	.st29{fill:url(#SVGID_1_);}
	.st30{fill:#4DBCD6;stroke:#000000;stroke-miterlimit:10;}
</style>
<g id="Layer_1">
	<g id="Normal">
		<rect id="Background" x="100" y="-75" class="st0" width="100" height="100"/>
		<path id="Face" class="st1" d="M171.9-29.7c2,3.6,3.1,7.6,3.1,12c0,13.7-50,13.7-50,0s11.2-24.7,25-24.7
			C159.4-42.5,167.6-37.4,171.9-29.7"/>
		<circle id="L-Eye" cx="140.1" cy="-29.2" r="1.5"/>
		<circle id="R-Eye" cx="159.9" cy="-29.2" r="1.5"/>
		<line id="Mouth" class="st2" x1="138.6" y1="-17.4" x2="161.4" y2="-17.4"/>
	</g>
	<g id="Happy">
		<rect id="Background_1_" x="200" y="-75" class="st3" width="100" height="100"/>
		<path id="Face_1_" class="st1" d="M271.9-29.7c2,3.6,3.1,7.6,3.1,12c0,13.7-50,13.7-50,0s11.2-24.7,25-24.7
			C259.4-42.5,267.6-37.4,271.9-29.7"/>
		<path id="Mouth_6_" class="st2" d="M238.6-17.6c0,0,3.8,5.3,11.4,5.2c7.5-0.1,11.4-5.2,11.4-5.2"/>
		<circle id="L-Eye_1_" cx="240.1" cy="-29.2" r="1.5"/>
		<circle id="R-Eye_1_" cx="259.9" cy="-29.2" r="1.5"/>
	</g>
	<g id="Vey_Happy">
		<rect id="Background_2_" x="300" y="-75" class="st4" width="100" height="100"/>
		<path id="Face_2_" class="st1" d="M371.9-29.7c2,3.6,3.1,7.6,3.1,12c0,13.7-50,13.7-50,0s11.2-24.7,25-24.7
			C359.4-42.5,367.6-37.4,371.9-29.7"/>
		<circle id="L-Eye_2_" cx="340.1" cy="-29.2" r="1.5"/>
		<circle id="R-Eye_2_" cx="359.9" cy="-29.2" r="1.5"/>
		<path id="Mouth_1_" class="st5" d="M338.9-22.8c0.4,5.8,5.3,10.4,11.2,10.4s10.8-4.6,11.2-10.4H338.9z"/>
		<g id="Tongue_1_">
			<path class="st6" d="M339.3-23c0.1,1.6,0.6,3.1,1.3,4.4c1.6-1.1,4.3-1.5,7.3-1c4.2,0.7,7.3,3,7.3,5.4c3.2-1.7,5.4-5,5.7-8.7
				L339.3-23L339.3-23z"/>
			<path id="Tongue" class="st7" d="M347.9-19.6c-2.9-0.5-5.6,0-7.3,1c1.8,3.4,5.4,5.6,9.5,5.6c1.9,0,3.6-0.5,5.1-1.3
				C355.2-16.6,352.1-18.9,347.9-19.6z"/>
			<path id="Tongue-Line" class="st2" d="M342.1-20c3.9-2.2,6.1-1.4,6.6,2.4"/>
		</g>
	</g>
	<g id="Angry">
		<rect id="Background_3_" x="400" y="-75" class="st8" width="100" height="100"/>
		<path id="Face_3_" class="st1" d="M471.9-29.7c2,3.6,3.1,7.6,3.1,12c0,13.7-50,13.7-50,0s11.2-24.7,25-24.7
			C459.4-42.5,467.6-37.4,471.9-29.7"/>
		<circle id="L-Eye_3_" cx="440.1" cy="-29.2" r="1.5"/>
		<circle id="R-Eye_3_" cx="459.9" cy="-29.2" r="1.5"/>
		<line id="L-Eyebarow" class="st2" x1="441.6" y1="-30" x2="438.6" y2="-31.3"/>
		<line id="R-Eyebrow" class="st2" x1="458.4" y1="-30" x2="461.4" y2="-31.3"/>
		<path class="st9" d="M453.9-14.3c-1.2,2.4-4.9,2.5-5.9,0c-0.1-0.2-0.2-0.4-0.4-0.6c-0.9-1-3.3,0.5-5.2-1.2
			c-2.8-2.6,2.7-5.9,5.9-5.9C452.5-21.9,455.9-18.5,453.9-14.3z"/>
		<path class="st7" d="M445.7-20c-1.6-0.4-3.1,0.4-3.7,1.9c0,0.6,0.2,1.1,0.8,1.7c1.8,1.6,4,0.3,5,1c0.1-0.2,0.2-0.5,0.3-0.7
			C448.4-17.8,447.4-19.6,445.7-20z"/>
	</g>
	<g id="Shocked">
		<rect id="Background_4_" x="500" y="-75" class="st10" width="100" height="100"/>
		<path id="Face_4_" class="st1" d="M571.9-29.7c2,3.6,3.1,7.6,3.1,12c0,13.7-50,13.7-50,0s11.2-24.7,25-24.7
			C559.4-42.5,567.6-37.4,571.9-29.7"/>
		<circle id="L-Eye_4_" cx="540.1" cy="-29.2" r="1.5"/>
		<circle id="R-Eye_4_" cx="559.9" cy="-29.2" r="1.5"/>
		<path id="L-Eyebarow_1_" class="st11" d="M539.1-32.7c-1.4-0.1-2.3,0.6-2.6,2"/>
		<path id="L-Eyebarow_3_" class="st11" d="M560.6-32.7c1.4-0.1,2.3,0.6,2.6,2"/>
		<ellipse transform="matrix(0.697 -0.7171 0.7171 0.697 179.2901 384.8387)" class="st9" cx="545" cy="-19.7" rx="7" ry="5.7"/>
		<path class="st7" d="M542.6-21.8c-1.2,0-2.6,1.2-3.4,2c-0.4,2,0.1,3.6,1.5,4.8c1.2,1.1,2.4,1.3,4.9,0.8c1-0.8,1.6-2.1,1.5-3.4
			C547-20,545-21.9,542.6-21.8z"/>
	</g>
	<g id="Disgusted">
		<rect id="Background_5_" x="100" y="25" class="st12" width="100" height="100"/>
		<path id="Face_5_" class="st1" d="M171.9,70.3c2,3.6,3.1,7.6,3.1,12c0,13.7-50,13.7-50,0s11.2-24.7,25-24.7
			C159.4,57.5,167.6,62.6,171.9,70.3"/>
		<circle id="L-Eye_5_" cx="140.1" cy="70.8" r="1.5"/>
		<circle id="R-Eye_5_" cx="159.9" cy="70.8" r="1.5"/>
		<path id="Mouth_3_" class="st2" d="M138.6,83.2c0,0,2.8-3.1,2.9-0.2c0.2,2.9,4.3-3.1,4.5-0.2c0.2,2.9,3.8-3.1,3.9-0.2
			c0.2,2.9,4.5-3.1,4.7-0.3s3.5-3.1,3.6-0.2c0.2,2.9,3.1-0.2,3.1-0.2"/>
		<line id="L-Eyebrow" class="st2" x1="138.6" y1="70" x2="141.6" y2="68.7"/>
		<line id="R-Eyebrow_2_" class="st2" x1="161.4" y1="70" x2="158.4" y2="68.7"/>
	</g>
	<g id="Love">
		<rect id="Background_6_" x="200.1" y="25" class="st13" width="100" height="100"/>
		<path id="Face_6_" class="st1" d="M272,70.3c2,3.6,3.1,7.6,3.1,12c0,13.7-50,13.7-50,0s11.2-24.7,25-24.7
			C259.5,57.5,267.7,62.6,272,70.3"/>
		<path id="Mouth_5_" class="st14" d="M254,83.8c-0.2,2-1.9,3.5-3.9,3.5s-3.7-1.6-3.9-3.5H246c0.2,2.1,1.9,3.8,4.1,3.8
			s3.9-1.7,4.1-3.8H254z"/>
		<path id="R-Eye_6_" class="st15" d="M261.4,67.7c-0.7,0-1.4,0.4-1.7,1c-0.3-0.6-0.9-1-1.7-1c-1,0-1.9,0.9-1.9,1.9
			c0,2.6,3.6,4.4,3.6,4.4s3.6-1.8,3.6-4.4C263.3,68.5,262.4,67.7,261.4,67.7z"/>
		<path id="L-Eye_6_" class="st15" d="M241.9,67.7c-0.7,0-1.4,0.4-1.7,1c-0.3-0.6-0.9-1-1.7-1c-1,0-1.9,0.9-1.9,1.9
			c0,2.6,3.6,4.4,3.6,4.4s3.6-1.8,3.6-4.4C243.8,68.6,243,67.7,241.9,67.7z"/>
	</g>
	<g id="Mad">
		<rect id="Background_7_" x="300.1" y="25" class="st16" width="100" height="100"/>
		<path id="Face_7_" class="st1" d="M372,70.3c2,3.6,3.1,7.6,3.1,12c0,13.7-50,13.7-50,0s11.2-24.7,25-24.7
			C359.5,57.5,367.7,62.6,372,70.3"/>
		<line id="L-Eyebarow_2_" class="st2" x1="341.7" y1="70.2" x2="338.7" y2="68.9"/>
		<line id="R-Eyebrow_1_" class="st2" x1="358.5" y1="70.2" x2="361.5" y2="68.9"/>
		<circle id="L-Eye_7_" cx="340.3" cy="70.8" r="1.5"/>
		<circle id="R-Eye_7_" cx="360" cy="70.8" r="1.5"/>
		<path class="st17" d="M338.8,78l9.1-0.3c2,0.1,4,0.5,5.8,1.2l5.2,2"/>
	</g>
	<g id="Hungry">
		<rect id="Background_8_" x="400" y="25" class="st18" width="100" height="100"/>
		<path id="Face_8_" class="st1" d="M471.8,70.3c2,3.6,3.1,7.6,3.1,12c0,13.7-50,13.7-50,0s11.2-24.7,25-24.7
			C459.3,57.5,467.5,62.7,471.8,70.3"/>
		<g>
			<path id="L-Mouth" class="st2" d="M436.1,81.1c0,0,1.4,0.5,2.7-0.5c1.3-1,1.3-2.4,1.3-2.4"/>
			<path id="L-Mouth_1_" class="st2" d="M463.9,81c0,0-1.4,0.5-2.7-0.5c-0.9-0.7-1.2-1.6-1.3-2.1"/>
			<path id="Mouth_4_" class="st2" d="M438.6,81.2c0,0,3.8,5.3,11.4,5.2c7.5-0.1,11.4-5.2,11.4-5.2"/>
			<path id="Tongue_2_" class="st19" d="M461.2,82.5c1.4,2.1,1.2,4.7-0.4,5.8c-1.7,1.1-4.1,0.3-5.6-1.8c-0.7-1.1,1.6-1.4,3.1-2.4
				C459.8,83.2,460.5,81.5,461.2,82.5z"/>
			<path id="Tongue_Line" class="st20" d="M457.7,84.5c0,0,1.9,0.9,1.6,1.4"/>
		</g>
		<circle id="L-Eye_8_" cx="440.1" cy="70.8" r="1.5"/>
		<circle id="R-Eye_8_" cx="459.9" cy="70.8" r="1.5"/>
	</g>
	<g id="Joke">
		<rect id="Background_9_" x="500" y="25" class="st21" width="100" height="100"/>
		<path id="Face_9_" class="st1" d="M571.9,70.3c2,3.6,3.1,7.6,3.1,12c0,13.7-50,13.7-50,0s11.2-24.7,25-24.7
			C559.4,57.5,567.6,62.7,571.9,70.3"/>
		<path id="Mouth_2_" class="st5" d="M538.9,77.2c0.4,5.8,5.3,10.4,11.2,10.4s10.8-4.6,11.2-10.4H538.9z"/>
		<path id="Mouth_7_" class="st20" d="M546,81.6c0.2,5.5,2,9,4.2,9s3.8-3.5,3.9-9H546z"/>
		<g id="L-Eye_10_">
			<polyline class="st2" points="538.9,69.3 540.8,70.8 542.7,72.4 			"/>
			<line class="st2" x1="542.7" y1="69.3" x2="538.9" y2="72.4"/>
		</g>
		<g id="R-Eye_10_">
			<polyline class="st2" points="557.6,69.3 559.5,70.8 561.4,72.4 			"/>
			<line class="st2" x1="561.4" y1="69.3" x2="557.6" y2="72.4"/>
		</g>
		<line id="Tongue-line" class="st2" x1="550" y1="79.8" x2="550.1" y2="84.2"/>
	</g>
	<g id="Relaxed">
		<rect id="Background_10_" x="100.1" y="125" class="st22" width="100" height="100"/>
		<path id="Face_10_" class="st1" d="M172,170.3c2,3.6,3.1,7.6,3.1,12c0,13.7-50,13.7-50,0s11.2-24.7,25-24.7
			C159.5,157.5,167.7,162.6,172,170.3"/>
		<g id="Mouth_14_">
			<path id="Mouth_12_" class="st2" d="M154.2,178.6c0,0,0.3,0.4,1,0.9s1.2,0.6,1.2,0.6"/>
			<path id="Mouth_8_" class="st2" d="M145.4,179.5c0,0,1.6,2.7,4.8,2.6c3.2-0.1,4.8-2.6,4.8-2.6"/>
			<path id="Mouth_13_" class="st2" d="M146.4,178.6c0,0-0.3,0.4-1,0.9c-0.7,0.5-1.2,0.6-1.2,0.6"/>
		</g>
		<path id="L-Eye_12_" class="st2" d="M144.6,169.4c0,0-1.1-0.4-2.5,0.3s-1.7,1.9-1.7,1.9"/>
		<path id="L-Eye_9_" class="st2" d="M156.4,169.4c0,0,1.1-0.4,2.5,0.3c1.4,0.7,1.7,1.9,1.7,1.9"/>
	</g>
	<g id="Sad_1_">
		<rect id="Background_11_" x="200.1" y="125" class="st23" width="100" height="100"/>
		<path id="Face_11_" class="st1" d="M272,170.3c2,3.6,3.1,7.6,3.1,12c0,13.7-50,13.7-50,0s11.2-24.7,25-24.7
			C259.5,157.5,267.7,162.6,272,170.3"/>
		<path id="Mouth_9_" class="st2" d="M238.7,185.6c0,0,3.8-5.3,11.4-5.2c7.5,0.1,11.4,5.2,11.4,5.2"/>
		<path id="Mouth_10_" class="st2" d="M238.1,171.6c0,0,0.2-1.4,1.6-2.1c1.4-0.7,2.6-0.2,2.6-0.2"/>
		<path id="Mouth_11_" class="st2" d="M262.1,171.6c0,0-0.2-1.4-1.6-2.1s-2.6-0.2-2.6-0.2"/>
		<circle id="L-Eye_11_" cx="240.2" cy="170.8" r="1.5"/>
		<circle id="R-Eye_11_" cx="260" cy="170.8" r="1.5"/>
	</g>
	<g id="Scared">
		<rect id="Background_12_" x="300.1" y="125" class="st24" width="100" height="100"/>
		<path id="Face_12_" class="st1" d="M372,170.3c2,3.6,3.1,7.6,3.1,12c0,13.7-50,13.7-50,0s11.2-24.7,25-24.7
			C359.5,157.5,367.7,162.6,372,170.3"/>
		<circle id="L-Eye_13_" cx="340.3" cy="170.8" r="1.5"/>
		<circle id="R-Eye_12_" cx="360" cy="170.8" r="1.5"/>
		<path class="st25" d="M358.4,178.6c-1.5-0.4-2.9,0.1-3.9,1.1c-0.4,0.4-1.1,0.4-1.5,0c-0.7-0.7-1.8-1.2-2.9-1.2
			c-1.1,0-2.2,0.5-2.9,1.2c-0.4,0.4-1,0.4-1.5,0c-1-1-2.4-1.5-3.9-1.1c-1.5,0.3-2.7,1.5-3,3c-0.6,2.7,1.4,5.1,4,5.1
			c1.1,0,2.2-0.5,2.9-1.2c0.4-0.4,1-0.4,1.5,0c0.7,0.7,1.8,1.2,2.9,1.2c1.1,0,2.2-0.5,2.9-1.2c0.4-0.4,1.1-0.4,1.5,0
			c0.7,0.7,1.8,1.2,2.9,1.2c2.6,0,4.6-2.4,4-5.1C361.1,180.1,359.9,178.9,358.4,178.6z"/>
		<path class="st7" d="M342.7,181.5c-1.6,0-2.9,0.7-3.6,1.7c0.4,1.8,2.1,3.1,4,3.1c1.1,0,2.2-0.5,2.9-1.2c0.2-0.2,0.6-0.3,0.9-0.3
			c0,0,0,0,0-0.1C346.9,182.9,345,181.5,342.7,181.5z"/>
		<path class="st4" d="M334.7,171.6c0,0-0.1-2.5-0.4-3.5c-0.9,0.5-1.9,1.3-2.7,2.3c-0.4,0.6-0.8,1.4-0.8,2.1c0,0.9,0.4,1.6,1,1.8
			c0.6,0.2,1.4,0,2-0.7C334.4,173.1,334.7,171.6,334.7,171.6z M333.5,173.1c-0.4,0.4-0.9,0.6-1.3,0.5c-0.2-0.1-0.4-0.3-0.5-0.6
			c0.1,0,0.1,0.1,0.2,0.1c0.5,0.2,1.2,0,1.6-0.6c0.4-0.4,0.6-1,0.7-1.4c0,0.2,0,0.4,0,0.6C334.1,172.1,333.9,172.7,333.5,173.1
			L333.5,173.1z"/>
	</g>
	<g id="Cry">
		<rect id="Background_13_" x="400.1" y="125" class="st26" width="100" height="100"/>
		<path id="Face_13_" class="st1" d="M472,170.3c2,3.6,3.1,7.6,3.1,12c0,13.7-50,13.7-50,0s11.2-24.7,25-24.7
			C459.5,157.5,467.7,162.6,472,170.3"/>
		<circle id="L-Eye_14_" cx="440.3" cy="170.8" r="1.5"/>
		<circle id="R-Eye_13_" cx="460" cy="170.8" r="1.5"/>
		<path id="L-Eyebrow_1_" class="st2" d="M436.8,169.3c0,0,1.2,0.1,2.3-1c1.1-1.1,1.1-2.3,1.1-2.3"/>
		<path id="L-Eyebrow_2_" class="st2" d="M463.4,169.3c0,0-1.2,0.1-2.3-1c-1.1-1.1-1.1-2.3-1.1-2.3"/>
		<path class="st4" d="M441.5,174.2c-0.1-0.3-0.2-0.6-0.4-0.8c-0.2,0.2-0.4,0.4-0.6,0.7c-0.1,0.2-0.1,0.4,0,0.6
			c0.1,0.2,0.2,0.4,0.4,0.4c0.2,0,0.4-0.1,0.5-0.3C441.5,174.6,441.5,174.4,441.5,174.2z M441.3,174.6c-0.1,0.1-0.2,0.2-0.3,0.2
			c-0.1,0-0.1,0-0.2-0.1c0,0,0,0,0.1,0c0.2,0,0.3-0.1,0.4-0.2c0.1-0.1,0.1-0.3,0.1-0.4c0,0,0,0.1,0,0.1
			C441.3,174.3,441.3,174.5,441.3,174.6L441.3,174.6z"/>
		<path class="st4" d="M459.7,174.7c0.1,0.2,0.3,0.3,0.5,0.3c0.2,0,0.4-0.2,0.4-0.4c0.1-0.2,0-0.4,0-0.6c-0.1-0.3-0.3-0.5-0.6-0.7
			c-0.2,0.2-0.3,0.5-0.4,0.8C459.6,174.4,459.6,174.6,459.7,174.7z M459.9,174.6c-0.1-0.1-0.1-0.3,0-0.4c0,0,0-0.1,0-0.1
			c0,0.1,0,0.3,0.1,0.4c0.1,0.2,0.3,0.3,0.4,0.2c0,0,0,0,0.1,0c-0.1,0.1-0.1,0.1-0.2,0.1C460.1,174.8,459.9,174.7,459.9,174.6
			L459.9,174.6z"/>
		<path class="st4" d="M442.2,172.9c-0.2-0.3-0.4-0.3-0.7-0.4c-0.1,0.3-0.2,0.4-0.2,0.7c0,0.2,0.1,0.4,0.2,0.5
			c0.1,0.2,0.4,0.2,0.5,0.2s0.3-0.2,0.4-0.5C442.4,173.3,442.4,173.1,442.2,172.9z M442.2,173.4c0,0.1-0.1,0.3-0.2,0.3
			c-0.1,0-0.2,0-0.2,0c0,0,0,0,0.1,0c0.2,0,0.3-0.2,0.3-0.4c0-0.2,0-0.3-0.1-0.4c0,0,0.1,0.1,0.1,0.1
			C442.2,173.1,442.2,173.3,442.2,173.4L442.2,173.4z"/>
		<path class="st4" d="M458.5,173.7c0,0.2,0.2,0.4,0.4,0.5s0.4,0,0.5-0.2c0.1-0.1,0.2-0.3,0.2-0.5c0-0.3-0.1-0.6-0.2-0.9
			c-0.3,0.1-0.5,0.3-0.7,0.6C458.6,173.3,458.5,173.5,458.5,173.7z M458.7,173.6c0-0.2,0-0.3,0.1-0.4c0,0,0.1-0.1,0.1-0.1
			c-0.1,0.1-0.1,0.2-0.1,0.4c0,0.2,0.1,0.3,0.3,0.4c0,0,0,0,0.1,0c-0.1,0-0.2,0-0.2,0C458.8,173.9,458.7,173.8,458.7,173.6
			L458.7,173.6z"/>
		<circle class="st9" cx="450.8" cy="181.9" r="6.9"/>
		<path class="st19" d="M457.4,183.9c-1-2-3.4-3.5-6.3-3.5c-3,0-5.6,1.6-6.5,3.8c1,2.5,3.5,4.2,6.4,4.2
			C453.9,188.3,456.4,186.5,457.4,183.9z"/>
		<path class="st20" d="M450.4,180.4l0.3,0.3c0.7,0.7,0.9,1.7,0.5,2.6l0,0"/>
	</g>
	<g id="Yawn">
		<rect id="Background_14_" x="500.1" y="125" class="st27" width="100" height="100"/>
		<path id="Face_14_" class="st1" d="M572,170.3c2,3.6,3.1,7.6,3.1,12c0,13.7-50,13.7-50,0s11.2-24.7,25-24.7
			C559.5,157.5,567.7,162.7,572,170.3"/>
		<path id="Mouth_17_" class="st2" d="M561.5,182.6"/>
		<path id="Mouth_16_" class="st2" d="M540.8,182.6"/>
		<path id="L-Eye_16_" class="st2" d="M537.9,170.2c0,0,0.8,0.9,2.3,1s2.4-0.8,2.4-0.8"/>
		<path id="L-Eye_15_" class="st2" d="M557.6,170.4c0,0,0.8,0.9,2.4,0.8s2.4-1,2.4-1"/>
		<path class="st5" d="M551.7,183.4c-1.7,2.5-3.5,4.8-6.5,4.8s-5.3-2.4-5.3-5.3s2.4-4.4,5.3-5.3C548.8,176.5,553.9,180,551.7,183.4z
			"/>
		<path class="st20" d="M543.4,182.6c-1.4,0-2.6,0.9-3.1,2.1c0.8,2.1,2.7,3.5,5.1,3.5c0.4,0,0.7-0.1,1-0.2c0.4-0.6,0.6-1.3,0.6-2
			C546.9,184.1,545.3,182.6,543.4,182.6z"/>
	</g>
</g>
<g id="Gradient" class="st28">
	<linearGradient id="SVGID_1_" gradientUnits="userSpaceOnUse" x1="221.3343" y1="294.7322" x2="476.2797" y2="-146.8462">
		<stop  offset="0" style="stop-color:#000000"/>
		<stop  offset="0.1889" style="stop-color:#020202"/>
		<stop  offset="0.257" style="stop-color:#090909"/>
		<stop  offset="0.3055" style="stop-color:#141414"/>
		<stop  offset="0.3447" style="stop-color:#252525"/>
		<stop  offset="0.3784" style="stop-color:#3B3B3B"/>
		<stop  offset="0.4081" style="stop-color:#575757"/>
		<stop  offset="0.435" style="stop-color:#777777"/>
		<stop  offset="0.4598" style="stop-color:#9D9D9D"/>
		<stop  offset="0.4818" style="stop-color:#C6C6C6"/>
		<stop  offset="0.5" style="stop-color:#EEEEEE"/>
		<stop  offset="0.6497" style="stop-color:#AAAAAA"/>
		<stop  offset="0.9962" style="stop-color:#020202"/>
		<stop  offset="1" style="stop-color:#000000"/>
	</linearGradient>
	<rect x="98.7" y="-76.1" class="st29" width="500.1" height="300"/>
</g>
<g id="Title">
	<g>
		<path class="st30" d="M160.6,101.6c0.2-3.3,0.4-21.6,0.4-26.9v-8.3c0-1.7-0.2-16.7-0.2-17.8c3.2,0,9.6,0.2,14.3,1
			c10.2,1.7,16.5,6.5,16.5,14.6c0,10.4-9.6,18.8-24,21.7v4.5c0,1.5,0,9.8,0.2,11.4H160.6z M167.6,80.4c9.6-2,16.6-6.9,16.6-15.3
			c0-2.3-1.3-10.9-16.6-11.1V80.4z"/>
		<path class="st30" d="M211.4,66.4c0,12.3,0.5,17.9,3.5,23.1c3,5.2,7.7,7.4,13.1,7.4c6.5,0,10.7-3.3,13.2-7.2
			c3.6-5.7,3.7-15,3.7-26.9v-2.7c0-5.2-0.3-9.7-0.5-12.5h7.2c0,1.7,0.1,6.7,0.1,12.7v3.5c0,14.6-0.8,23.8-6.5,30.9
			c-4.5,5.5-10.2,8-18.2,8c-4.1,0-12.4-0.6-17.7-9c-3.6-5.7-4.9-11.6-4.9-30.1v-4.1c0-3.5,0.1-9,0.1-10.8h7.2
			c-0.2,2-0.4,5.5-0.4,12.4V66.4z"/>
		<path class="st30" d="M270.1,101.6c0.6-4,0.6-20.3,0.6-22.1V69.4c0-1.2-0.2-19.5-0.3-20.9c1.9,0,20.9-0.8,24-1.1l0.3,5.8
			l-17.2,0.4v19.4c1.4,0,12.1-0.5,15.7-0.7l0.2,5.8l-15.9-0.3v7.2c0,1.2-0.1,15.6,0.2,16.6H270.1z"/>
		<path class="st30" d="M333.6,101.6c0.6-4,0.6-20.3,0.6-22.1V69.4c0-1.2-0.2-19.5-0.3-20.9c1.9,0,20.9-0.8,24-1.1l0.3,5.8L341,53.5
			v19.4c1.4,0,12.1-0.5,15.7-0.7L357,78L341,77.7v7.2c0,1.2-0.1,15.6,0.2,16.6H333.6z"/>
		<path class="st30" d="M363.5,99.1c4.2-7.3,26-50.4,27.9-53.3h0.2c6.7,10.8,24.7,45,29.8,52.9l-6.5,4.3
			c-1.5-2.9-9.6-18.4-10.4-19.7l-26.3,1.1c-0.9,1.4-7.1,16.1-8.4,18.7L363.5,99.1z M402.2,78.4c-0.8-1.7-10.2-19.4-10.9-20.6
			c-1.1,1.7-9.9,20.3-10.6,21.5L402.2,78.4z"/>
		<path class="st30" d="M469.9,102c-2.3,0.5-5.8,0.8-10.3,0.8c-25.9,0-32.3-15.5-32.3-22.5c0-12.4,11.5-28.3,38.3-33.1l1.1,6.4
			c-17.4,2-31.7,12.4-31.7,25.4c0,9.3,7.3,18,25.4,18c3,0,6.2-0.5,8.8-1.1L469.9,102z"/>
		<path class="st30" d="M509.5,102.3c-1.2,0-24.1-0.8-25.6-0.8c0.2-4,0.2-20.3,0.2-22V69.4c0-1.2-0.2-19.4-0.2-20.9
			c1.8,0,21.6-1,24.1-1.3l0.3,6c-2.4,0-16.1,0.4-17.3,0.4v19.1c1.4,0,11.1-0.4,14.8-0.8l0.2,6c-1.7,0-13.5-0.3-15-0.3V96
			c1.8,0,12,0.2,18.2-0.2L509.5,102.3z"/>
		<path class="st30" d="M525.5,97.2c7.4-1.5,16.9-5.3,16.9-11.5c0-3.8-2.4-5.8-7.9-8.7c-6.5-3.5-10.9-6.7-10.9-12.1
			c0-8,11.2-15.4,21.6-17.8l1.6,5.8c-4.6,0.8-15.9,4.3-15.9,10.6c0,3.9,5.4,6.4,8.6,8.3c5.8,3.4,10.4,5.8,10.4,12
			c0,7.4-7.9,15.6-22.5,19L525.5,97.2z"/>
	</g>
</g>
</svg>
