<?xml version="1.0" encoding="utf-8"?>
<!-- Generator: Adobe Illustrator 19.1.0, SVG Export Plug-In . SVG Version: 6.00 Build 0)  -->
<svg version="1.1" id="Layer_1" xmlns="http://www.w3.org/2000/svg" xmlns:xlink="http://www.w3.org/1999/xlink" x="0px" y="0px"
	 viewBox="-379 256 200 50" style="enable-background:new -379 256 200 50;" xml:space="preserve">
<style type="text/css">
	.st0{fill:#173C52;}
	.st1{fill:#B78846;}
	.st2{fill:#FFFFFF;}
</style>
<rect x="-379" y="256" class="st0" width="50" height="50"/>
<g>
	<rect x="-379" y="256" class="st1" width="50" height="2"/>
</g>
<g>
	<rect x="-331" y="256" class="st1" width="2" height="50"/>
</g>
<g>
	<rect x="-379" y="256" class="st1" width="2" height="50"/>
</g>
<g>
	<rect x="-379" y="304" class="st1" width="50" height="2"/>
</g>
<g>
	<path class="st2" d="M-307.6,290.3c-0.7,0.5-2.2,1-4.1,1c-4.3,0-7.6-3.8-7.6-10.7c0-6.6,3.3-11.1,8-11.1c1.9,0,3.1,0.6,3.7,0.9
		l-0.5,2.2c-0.8-0.5-1.8-0.9-3.1-0.9c-3.6,0-6,3.2-6,8.7c0,5.2,2.2,8.5,5.9,8.5c1.2,0,2.4-0.3,3.2-0.9L-307.6,290.3z"/>
	<path class="st2" d="M-299.3,291l-0.2-1.9h-0.1c-0.6,1.2-1.8,2.3-3.4,2.3c-2.2,0-3.4-2.2-3.4-4.4c0-3.7,2.4-5.7,6.6-5.7V281
		c0-1.3-0.3-3.5-2.5-3.5c-1,0-2.1,0.4-2.9,1.1l-0.5-1.8c0.9-0.8,2.2-1.4,3.6-1.4c3.4,0,4.2,3.2,4.2,6.2v5.7c0,1.3,0,2.6,0.2,3.6
		h-1.6V291z M-299.5,283.2c-2.2-0.1-4.7,0.5-4.7,3.4c0,1.8,0.9,2.6,1.9,2.6c1.4,0,2.4-1.3,2.7-2.5c0.1-0.3,0.1-0.6,0.1-0.9V283.2z"
		/>
	<path class="st2" d="M-284.8,275.8c0,1.1-0.1,2.3-0.1,4.2v8.8c0,3.5-0.5,5.6-1.6,6.9c-1.1,1.4-2.6,1.8-4,1.8
		c-1.3,0-2.8-0.4-3.7-1.3l0.5-2.1c0.7,0.6,1.9,1.2,3.2,1.2c2.1,0,3.6-1.5,3.6-5.3v-1.7l0,0c-0.6,1.4-1.8,2.5-3.5,2.5
		c-2.7,0-4.7-3.2-4.7-7.4c0-5.1,2.4-8.1,5-8.1c1.9,0,3,1.4,3.4,2.6l0,0l0.1-2.3h1.8V275.8z M-286.9,281.8c0-0.5,0-0.9-0.1-1.3
		c-0.4-1.6-1.3-2.9-2.8-2.9c-1.9,0-3.3,2.2-3.3,5.7c0,3,1.1,5.5,3.3,5.5c1.2,0,2.4-1.1,2.8-2.8c0.1-0.5,0.2-1,0.2-1.5v-2.7H-286.9z"
		/>
	<path class="st2" d="M-272.1,268.7V287c0,1.4,0,2.9,0.1,3.9h-1.8l-0.1-2.6l0,0c-0.6,1.7-2,3-3.8,3c-2.7,0-4.7-3.1-4.7-7.7
		c0-5.1,2.3-8.2,5-8.2c1.7,0,2.8,1.1,3.3,2.3l0,0v-9.1h2V268.7z M-274.1,282c0-0.3,0-0.8-0.1-1.2c-0.3-1.8-1.4-3.2-2.9-3.2
		c-2.1,0-3.3,2.5-3.3,5.9c0,3.1,1.1,5.6,3.3,5.6c1.3,0,2.6-1.2,2.9-3.3c0.1-0.4,0.1-0.8,0.1-1.2V282z"/>
	<path class="st2" d="M-262.6,291l-0.2-1.9h-0.1c-0.6,1.2-1.8,2.3-3.4,2.3c-2.2,0-3.4-2.2-3.4-4.4c0-3.7,2.4-5.7,6.6-5.7V281
		c0-1.3-0.3-3.5-2.5-3.5c-1,0-2.1,0.4-2.9,1.1l-0.5-1.8c0.9-0.8,2.2-1.4,3.6-1.4c3.4,0,4.2,3.2,4.2,6.2v5.7c0,1.3,0,2.6,0.2,3.6
		h-1.6V291z M-262.9,283.2c-2.2-0.1-4.7,0.5-4.7,3.4c0,1.8,0.9,2.6,1.9,2.6c1.4,0,2.4-1.3,2.7-2.5c0.1-0.3,0.1-0.6,0.1-0.9
		C-262.9,285.8-262.9,283.2-262.9,283.2z"/>
	<path class="st2" d="M-258,288.1c0.6,0.5,1.6,1.1,2.6,1.1c1.5,0,2.1-1,2.1-2.3s-0.6-2-2.1-2.8c-2-1-2.9-2.5-2.9-4.3
		c0-2.4,1.4-4.5,3.8-4.5c1.1,0,2.1,0.4,2.7,0.9l-0.5,2c-0.4-0.4-1.2-0.9-2.3-0.9c-1.2,0-1.8,0.9-1.8,2.1c0,1.3,0.7,1.8,2.1,2.6
		c1.9,1,2.9,2.3,2.9,4.6c0,2.7-1.5,4.6-4.1,4.6c-1.2,0-2.3-0.4-3.1-1L-258,288.1z"/>
	<path class="st2" d="M-241.4,291v-9l-4.9-12.2h2.3l2.2,5.8c0.6,1.6,1.1,2.9,1.5,4.4l0,0c0.4-1.4,1-2.8,1.6-4.4l2.2-5.8h2.3
		l-5.2,12.2v9H-241.4z"/>
	<path class="st2" d="M-224.3,283.2c0,5.6-2.8,8.1-5.5,8.1c-3,0-5.3-3-5.3-7.8c0-5.1,2.4-8.1,5.5-8.1
		C-226.4,275.4-224.3,278.6-224.3,283.2z M-233,283.4c0,3.3,1.4,5.8,3.4,5.8c1.9,0,3.4-2.5,3.4-5.9c0-2.6-0.9-5.8-3.3-5.8
		C-232,277.5-233,280.5-233,283.4z"/>
	<path class="st2" d="M-221.7,279.9c0-1.6,0-2.9-0.1-4.1h1.8l0.1,2.5l0,0c0.5-1.4,1.8-2.9,3.7-2.9c1.5,0,3.9,1.3,3.9,6.5v9.1h-2
		v-8.8c0-2.4-0.7-4.5-2.6-4.5c-1.3,0-2.4,1.3-2.7,2.8c-0.1,0.3-0.1,0.8-0.1,1.3v9.2h-2C-221.7,291-221.7,279.9-221.7,279.9z"/>
	<path class="st2" d="M-199.5,268.7V287c0,1.4,0,2.9,0.1,3.9h-1.8l-0.1-2.6l0,0c-0.6,1.7-2,3-3.8,3c-2.7,0-4.7-3.1-4.7-7.7
		c0-5.1,2.3-8.2,5-8.2c1.7,0,2.8,1.1,3.3,2.3l0,0v-9.1h2V268.7z M-201.5,282c0-0.3,0-0.8-0.1-1.2c-0.3-1.8-1.4-3.2-2.9-3.2
		c-2.1,0-3.3,2.5-3.3,5.9c0,3.1,1.1,5.6,3.3,5.6c1.3,0,2.6-1.2,2.9-3.3c0.1-0.4,0.1-0.8,0.1-1.2V282z"/>
	<path class="st2" d="M-195.1,283.9c0,3.7,1.8,5.3,3.8,5.3c1.4,0,2.3-0.3,3.1-0.8l0.3,2c-0.7,0.4-1.9,0.9-3.7,0.9
		c-3.4,0-5.4-3.1-5.4-7.7s2-8.2,5.2-8.2c3.6,0,4.6,4.4,4.6,7.2c0,0.6,0,1-0.1,1.3C-187.3,283.9-195.1,283.9-195.1,283.9z
		 M-189.2,281.9c0-1.8-0.5-4.5-2.8-4.5c-2,0-2.9,2.6-3.1,4.5H-189.2z"/>
	<path class="st2" d="M-184.8,280.5c0-1.8,0-3.3-0.1-4.7h1.8l0.1,3h0.1c0.5-2,1.7-3.3,3.1-3.3c0.2,0,0.4,0,0.6,0.1v2.6
		c-0.3-0.1-0.5-0.2-0.8-0.2c-1.4,0-2.4,1.5-2.7,3.5c0,0.4-0.1,0.8-0.1,1.3v8.2h-2C-184.8,291-184.8,280.5-184.8,280.5z"/>
</g>
<path class="st1" d="M-338.2,263L-338.2,263h-4.8h-2c-0.8,0-1.6,0.4-2,1.2l-8.7,14.6c-0.8,1.3-2.6,1.3-3.3,0l-9.3-14.6l-0.6-0.9
	c-0.1-0.1-0.2-0.2-0.4-0.2h-2.1c-0.3,0-0.5,0.2-0.5,0.5v35c0,0.3,0.2,0.5,0.5,0.5h0.9h1.4h10.1h0.2h2.3h0.8h9.8l0,0
	c1.4,0,2.6-0.3,3.7-0.7c1.2-0.4,2.2-1.1,3-1.9c0.8-0.8,1.5-1.7,2.1-2.8c0.5-1.1,1-2.1,1.3-3.4h-2c-0.2,0-0.4,0.2-0.5,0.4
	c-0.2,0.7-0.4,1.4-0.8,2c-0.4,0.7-1,1.4-1.6,2l0,0c-0.6,0.5-1.4,1.1-2.3,1.4c-1.3,0.5-2.9,0.7-4.6,0.4c-0.2,0-0.4-0.1-0.5-0.1
	c-1.4-0.5-2.6-1.2-3.7-2.3c-0.8-0.9-1.4-2-2-3.3c0,0,0,0,0-0.1c-0.4-1.3-0.7-2.9-0.7-4.6c0-1.3,0.2-2.6,0.5-3.7
	c0.5-1.2,1.1-2.2,1.8-3.1c0.8-0.9,1.6-1.6,2.7-2.1c1-0.5,2.2-0.8,3.4-0.8c2.1,0,3.7,0.4,5,1.3c1.2,0.8,2.1,2,2.8,3.6
	c0.1,0.2,0.3,0.3,0.5,0.3h2.1l0,0l0,0V275v-12l0,0H-338.2z"/>
</svg>
