<?xml version="1.0" encoding="utf-8"?>
<!-- Generator: Adobe Illustrator 19.1.0, SVG Export Plug-In . SVG Version: 6.00 Build 0)  -->
<svg version="1.1" id="Layer_1" xmlns="http://www.w3.org/2000/svg" xmlns:xlink="http://www.w3.org/1999/xlink" x="0px" y="0px"
	 viewBox="-574 376 50 50" enable-background="new -574 376 50 50" xml:space="preserve">
<rect x="-574" y="376" fill="#173C52" width="50" height="50"/>
<g>
	<rect x="-574" y="376" fill="#B78846" width="50" height="2"/>
</g>
<g>
	<rect x="-526" y="376" fill="#B78846" width="2" height="50"/>
</g>
<g>
	<rect x="-574" y="376" fill="#B78846" width="2" height="50"/>
</g>
<g>
	<rect x="-574" y="424" fill="#B78846" width="50" height="2"/>
</g>
<path fill="#B78846" d="M-533.2,383L-533.2,383h-4.8h-2c-0.8,0-1.6,0.4-2,1.2l-8.7,14.6c-0.8,1.3-2.6,1.3-3.3,0l-9.3-14.6l-0.6-0.9
	c-0.1-0.1-0.2-0.2-0.4-0.2h-2.1c-0.3,0-0.5,0.2-0.5,0.5v35c0,0.3,0.2,0.5,0.5,0.5h0.9h1.4h10.1h0.2h2.3h0.8h9.8l0,0
	c1.4,0,2.6-0.3,3.7-0.7c1.2-0.4,2.2-1.1,3-1.9c0.8-0.8,1.5-1.7,2.1-2.8c0.5-1.1,1-2.1,1.3-3.4h-2c-0.2,0-0.4,0.2-0.5,0.4
	c-0.2,0.7-0.4,1.4-0.8,2c-0.4,0.7-1,1.4-1.6,2l0,0c-0.6,0.5-1.4,1.1-2.3,1.4c-1.3,0.5-2.9,0.7-4.6,0.4c-0.2,0-0.4-0.1-0.5-0.1
	c-1.4-0.5-2.6-1.2-3.7-2.3c-0.8-0.9-1.4-2-2-3.3c0,0,0,0,0-0.1c-0.4-1.3-0.7-2.9-0.7-4.6c0-1.3,0.2-2.6,0.5-3.7
	c0.5-1.2,1.1-2.2,1.8-3.1c0.8-0.9,1.6-1.6,2.7-2.1c1-0.5,2.2-0.8,3.4-0.8c2.1,0,3.7,0.4,5,1.3c1.2,0.8,2.1,2,2.8,3.6
	c0.1,0.2,0.3,0.3,0.5,0.3h2.1l0,0l0,0V395v-12l0,0H-533.2z"/>
</svg>
